<?xml version="1.0" encoding="utf-8"?>
<!-- Generator: Adobe Illustrator 28.0.0, SVG Export Plug-In . SVG Version: 6.00 Build 0)  -->
<svg version="1.1" id="Layer_1" xmlns="http://www.w3.org/2000/svg" xmlns:xlink="http://www.w3.org/1999/xlink" x="0px" y="0px"
	 viewBox="0 0 1193 198.7" style="enable-background:new 0 0 1193 198.7;" xml:space="preserve">
<style type="text/css">
	.st0{fill:#24D664;}
</style>
<g>
	<g>
		<rect x="723.4" y="45.1" class="st0" width="80.5" height="63"/>
		<g>
			<g>
				<g>
					<path d="M569.8,118.7c-2.1-5.4-4.1-10.7-6.2-16.1c-10.5-27.4-21.1-54.8-31.6-82.2c0-0.1-0.1-0.2-0.1-0.3c7.9,0,15.8,0,23.8,0
						c0.1,0.3,0.2,0.6,0.3,0.9c1.7,4.4,3.4,8.9,5,13.3c6.4,16.9,12.7,33.7,19.1,50.6c0.1,0.3,0.3,0.6,0.5,1.1c0.2-0.5,0.3-0.7,0.4-1
						c8.5-21.3,16.9-42.7,25.4-64.1c0.1-0.3,0.2-0.5,0.2-0.8c5.4,0,10.7,0,16.1,0c0.1,0.2,0.2,0.4,0.3,0.6
						c5.6,13.9,11.2,27.8,16.8,41.6c3.1,7.6,6.1,15.1,9.2,22.7c0.1,0.3,0.2,0.5,0.4,1c0.2-0.5,0.3-0.8,0.5-1.2
						c7.7-21.2,15.3-42.5,23-63.7c0.1-0.3,0.2-0.7,0.2-1c6.9,0,13.8,0,20.7,0c-1.2,3.1-2.4,6.2-3.6,9.3
						c-11.3,29.4-22.7,58.8-34,88.2c-0.1,0.3-0.2,0.7-0.3,1.1c-5.2,0-10.5,0-15.7,0c-0.1-0.3-0.1-0.6-0.2-0.8
						c-5.3-13.2-10.5-26.4-15.8-39.7c-3.5-8.8-7-17.6-10.5-26.4c-0.1-0.3-0.2-0.6-0.5-0.9c-0.2,0.5-0.4,0.8-0.5,1.2
						c-7.2,17.8-14.4,35.7-21.6,53.5c-1.8,4.3-3.5,8.7-5.2,13.1C580.4,118.7,575.1,118.7,569.8,118.7z"/>
				</g>
				<g>
					<g>
						<path d="M727,118.7c-0.9-0.1-1.9-0.3-2.8-0.4c-2-0.3-3.9-0.7-5.8-1.3c-3.2-1.1-5.3-3.3-6.5-6.5c-0.8-2-1.2-4.1-1.4-6.2
							c-0.1-1.9-0.2-3.8-0.2-5.6c0-13.9,0-27.7,0-41.6c0-3,0.2-5.9,1-8.8c0-0.1,0.1-0.2,0.1-0.4c1.2-4.7,4.2-7.5,8.9-8.7
							c3.5-0.9,7-1.2,10.6-1.2c21.1,0,42.2,0,63.3,0c3.6,0,7.1,0.2,10.6,1.2c1.1,0.3,2.1,0.7,3.1,1.1c2,0.9,3.5,2.4,4.5,4.4
							c1.1,2.1,1.7,4.4,1.9,6.7c0.2,2.3,0.4,4.5,0.4,6.8c0,13.8,0,27.5,0,41.3c0,3.2-0.2,6.4-1.1,9.5c0,0.2-0.1,0.3-0.1,0.5
							c-1.2,4.1-3.9,6.7-8,7.9c-2.1,0.6-4.3,1-6.5,1.2c-0.4,0-0.7,0.1-1.1,0.2C774.3,118.7,750.6,118.7,727,118.7z M795,103.3
							c0-16.9,0-33.6,0-50.4c-1.2-0.2-64.4-0.2-65,0.1c0,16.7,0,33.5,0,50.3C751.7,103.3,773.3,103.3,795,103.3z"/>
					</g>
				</g>
				<g>
					<g>
						<path d="M848.7,118.7c0-0.4,0-0.9,0-1.3c0-26,0-51.9,0-77.9c0-0.4,0-0.9,0-1.4c0.5,0,0.9,0,1.3,0c22.5,0,44.9,0,67.4,0
							c1.9,0,3.7,0,5.6,0c2.9,0.1,5.8,0.4,8.6,1.3c4.8,1.6,7.5,4.9,8.4,9.7c0.3,1.4,0.4,2.9,0.4,4.4c0,6.5,0,12.9,0,19.4
							c0,2-0.2,4-0.8,5.9c-1.1,3.6-3.3,6.2-6.8,7.6c-2.4,1-5,1.6-7.6,1.6c-4.3,0.1-8.6,0.1-12.9,0.2c-0.5,0-0.9,0-1.6,0
							c0.3,0.3,0.5,0.5,0.7,0.7c7.2,5.7,14.4,11.5,21.6,17.2c5,4,10.1,8,15.1,12.1c0.2,0.2,0.4,0.4,0.6,0.6c-9.5,0-18.9,0-28.4,0
							c-0.2-0.3-0.4-0.5-0.7-0.8c-2.6-2.3-5.2-4.7-7.7-7c-8.2-7.4-16.4-14.8-24.6-22.2c-0.4-0.3-0.7-0.5-1.3-0.5
							c-5.7,0-11.4,0-17.1,0c-0.2,0-0.5,0.1-0.8,0.1c0,0.4,0,0.8,0,1.2c0,7.5,0,15,0,22.5c0,2.2,0,4.5,0,6.7
							C861.6,118.7,855.1,118.7,848.7,118.7z M868.1,74.3c0.5,0,0.9,0,1.3,0c14.5,0,28.9,0,43.4,0c0.6,0,1.2,0,1.7,0
							c1.4-0.1,2.7-0.2,4-0.7c1.6-0.6,2.6-1.6,3-3.2c0.2-0.9,0.3-1.8,0.3-2.6c0-3,0-6.1,0-9.1c0-0.7-0.1-1.3-0.2-2
							c-0.4-2-1.5-3.4-3.5-4c-1.5-0.4-3.1-0.6-4.6-0.6c-14.8,0-29.6,0-44.5,0c-0.3,0-0.6,0-1,0C868.1,59.4,868.1,66.8,868.1,74.3z"
							/>
					</g>
				</g>
				<g>
					<path d="M406.5,118.7c0-0.4,0-0.8,0-1.2c0-26,0-52.1,0-78.1c0-0.4,0-0.8,0-1.3c0.4,0,0.7-0.1,1-0.1c3.9,0,7.8,0,11.7,0
						c0.6,0,1.1,0.2,1.6,0.6C441.6,54.8,462.3,71,483,87.2c1.6,1.2,3.1,2.4,4.7,3.7c0.2,0.2,0.5,0.3,0.7,0.5c0.1,0,0.1,0,0.1-0.1
						c0,0,0,0,0-0.1c0-0.1,0-0.1,0-0.2c0,0,0-0.1,0-0.1c0-0.1,0-0.2,0-0.3c0-17.3,0-34.7,0-52c0-0.1,0-0.1,0-0.2c0,0,0-0.1,0-0.1
						c0,0,0-0.1,0-0.1c0,0,0-0.1,0.1-0.1c5.8,0,11.7,0,17.6,0c0,0.2,0.1,0.4,0.1,0.6c0,0.2,0,0.4,0,0.7c0,26.1,0,52.1,0,78.2
						c0,0.4,0,0.8,0,1.1c-4.6,0-9.2,0-13.8,0c-0.2-0.2-0.4-0.5-0.7-0.6c-7-5.6-14-11.2-21-16.8c-15.2-12.1-30.3-24.2-45.5-36.2
						c-0.2-0.2-0.5-0.3-0.9-0.6c0,0.5,0,0.9,0,1.3c0,17.3,0,34.6,0,51.9c0,0.4,0,0.7,0,1.1C418.5,118.7,412.5,118.7,406.5,118.7z"/>
				</g>
				<g>
					<path d="M972.7,118.7c0-0.4,0-0.9,0-1.3c0-26,0-51.9,0-77.9c0-0.4,0-0.9,0-1.4c6.7,0,13.2,0,19.9,0c0,10.8,0,21.5,0,32.5
						c0.5-0.3,0.7-0.5,1-0.7c13.4-9.3,26.9-18.6,40.3-27.9c1.7-1.2,3.4-2.4,5.1-3.6c0.4-0.2,0.7-0.4,1.1-0.4c9.1,0,18.2,0,27.3,0
						c0.1,0,0.2,0,0.3,0c0,0.4-0.4,0.5-0.6,0.6c-7,4.7-14,9.4-21,14.1c-11,7.3-21.9,14.7-32.9,22c-0.3,0.2-0.5,0.4-0.9,0.6
						c0.4,0.3,0.7,0.5,1,0.8c11.5,8,22.9,16,34.4,24c8.5,5.9,17,11.9,25.5,17.8c0.3,0.2,0.5,0.5,0.7,0.7c-10.3,0-20.7,0-31,0
						c-0.3-0.2-0.6-0.5-0.9-0.7c-3.3-2.4-6.7-4.8-10-7.2c-12.9-9.2-25.7-18.5-38.6-27.7c-0.3-0.2-0.5-0.4-1-0.6c0,0.5,0,0.8,0,1.1
						c0,11.4,0,22.8,0,34.2c0,0.3,0,0.6,0,1C986,118.7,979.3,118.7,972.7,118.7z"/>
				</g>
				<g>
					<path d="M363.4,20.2c0,0.3,0.1,0.7,0.1,1c0,32.1,0,64.3,0,96.4c0,0.3,0,0.7-0.1,1c-7.7,0-15.3,0-23,0c0-32.8,0-65.7,0-98.5
						C348.1,20.2,355.7,20.2,363.4,20.2z"/>
				</g>
			</g>
		</g>
	</g>
</g>
<path class="st0" d="M20,20.6l44.3,0l57.8,15.6L138,65.5l-6,11.1l-15.4-28.4c-1-1.9-2.8-3.2-4.8-3.8L68.6,32.7
	c-3.8-1-7.7-1.5-11.6-1.5l-15.1,0c-3.1,0-5.3,3.1-4.1,6l20.4,52.9c1.1,3,4,4.9,7.2,5l26.5,0.3c1.7,0,2.7,1.8,1.9,3.3l-17.2,31.6
	c-1.1,2-1.2,4.4-0.4,6.5l10.6,27.5c1.2,3,4,5,7.3,5l7.3,0c2.8,0,5.5-1.6,6.8-4.1L174,43.4c2.5-4.6,6.7-7.9,11.7-9.2l50-13.5l44.3,0
	L247,105.9l-24.9,0l14.6,26.9l-18.1,47.1l-30.8,0L162,132.3l6-11.1l23.9,44.1c1.4,2.5,4,4.1,6.8,4.1l7.3,0c3.2,0,6.1-2,7.3-5
	l10.6-27.5c0.8-2.1,0.7-4.5-0.4-6.5l-17.2-31.8c-0.8-1.5,0.3-3.3,2-3.3l26.3,0c3.2,0,6.1-2,7.3-5l20.5-53.1c1.1-2.9-1-6-4.1-6
	l-15.1,0c-3.9,0-7.8,0.5-11.6,1.5l-43.1,11.7c-2.1,0.6-3.8,1.9-4.8,3.8l-5,9.2l0,0l-63.2,116.9l0,0c-1.9,3.5-5.5,5.6-9.4,5.6
	l-24.4,0l-18.2-47.2l14.6-26.9l-25.1-0.3L20,20.6z"/>
<g>
	<path d="M355.1,151.6c2.3,1.2,4.1,2.9,5.3,5.1c1.3,2.2,1.9,4.7,1.9,7.7s-0.6,5.4-1.9,7.6s-3,3.8-5.3,5c-2.3,1.2-5,1.8-8,1.8h-10.1
		v-28.9h10.1C350.1,149.8,352.8,150.4,355.1,151.6z M353.9,171.3c1.7-1.7,2.5-4,2.5-7c0-3-0.8-5.4-2.5-7.1c-1.7-1.7-4-2.6-7-2.6
		h-4.1v19.1h4.1C349.9,173.8,352.2,173,353.9,171.3z"/>
	<path d="M372.4,149.8v17.9c0,2,0.5,3.5,1.5,4.5c1,1,2.5,1.6,4.3,1.6c1.9,0,3.3-0.5,4.4-1.6c1-1,1.5-2.5,1.5-4.5v-17.9h5.8v17.9
		c0,2.5-0.5,4.5-1.6,6.2c-1.1,1.7-2.5,3-4.3,3.8s-3.8,1.3-6,1.3c-2.2,0-4.1-0.4-5.9-1.3s-3.1-2.1-4.2-3.8c-1-1.7-1.5-3.8-1.5-6.2
		v-17.9H372.4z"/>
	<path d="M401.3,149.8v17.9c0,2,0.5,3.5,1.5,4.5c1,1,2.5,1.6,4.3,1.6c1.9,0,3.3-0.5,4.4-1.6c1-1,1.5-2.5,1.5-4.5v-17.9h5.8v17.9
		c0,2.5-0.5,4.5-1.6,6.2c-1.1,1.7-2.5,3-4.3,3.8c-1.8,0.9-3.8,1.3-6,1.3c-2.2,0-4.1-0.4-5.9-1.3c-1.8-0.9-3.1-2.1-4.2-3.8
		c-1-1.7-1.5-3.8-1.5-6.2v-17.9H401.3z"/>
	<path d="M439.4,178.7l-6.4-11.3h-2.7v11.3h-5.8v-28.9h10.9c2.2,0,4.1,0.4,5.7,1.2c1.6,0.8,2.8,1.9,3.5,3.2c0.8,1.3,1.2,2.8,1.2,4.5
		c0,1.9-0.6,3.6-1.7,5.2c-1.1,1.5-2.8,2.6-4.9,3.2l6.9,11.7H439.4z M430.3,163.1h4.9c1.6,0,2.8-0.4,3.5-1.1c0.8-0.8,1.2-1.8,1.2-3.2
		c0-1.3-0.4-2.4-1.2-3.1c-0.8-0.7-1.9-1.1-3.5-1.1h-4.9V163.1z"/>
	<path d="M457,173.8h13v4.9h-19.7v-4.5l12.9-19.6h-12.9v-4.9H470v4.5L457,173.8z"/>
	<path d="M492.7,173.2h-11.5l-1.9,5.5h-6.1l10.4-29h6.8l10.4,29h-6.1L492.7,173.2z M491.1,168.6l-4.2-12.1l-4.2,12.1H491.1z"/>
	<path d="M522.4,173.2h-11.5l-1.9,5.5h-6.1l10.4-29h6.8l10.4,29h-6.1L522.4,173.2z M520.8,168.6l-4.2-12.1l-4.2,12.1H520.8z"/>
	<path d="M565.9,149.8v28.9h-5.8v-18.8l-7.8,18.8h-4.4l-7.8-18.8v18.8h-5.8v-28.9h6.6l9.2,21.5l9.2-21.5H565.9z"/>
	<path d="M620.1,149.8l-8.1,28.9h-6.8l-5.4-20.6l-5.7,20.6l-6.8,0l-7.8-29h6.2l5.1,22.5l5.9-22.5h6.5l5.6,22.3l5.1-22.3H620.1z"/>
	<path d="M629.7,154.5v7.3h9.7v4.6h-9.7v7.7h11v4.7h-16.8v-29h16.8v4.7H629.7z"/>
	<path d="M660.9,178.7l-6.4-11.3h-2.7v11.3H646v-28.9h10.9c2.2,0,4.1,0.4,5.7,1.2c1.6,0.8,2.8,1.9,3.5,3.2c0.8,1.3,1.2,2.8,1.2,4.5
		c0,1.9-0.6,3.6-1.7,5.2c-1.1,1.5-2.8,2.6-4.9,3.2l6.9,11.7H660.9z M651.8,163.1h4.9c1.6,0,2.8-0.4,3.5-1.1c0.8-0.8,1.2-1.8,1.2-3.2
		c0-1.3-0.4-2.4-1.2-3.1c-0.8-0.7-1.9-1.1-3.5-1.1h-4.9V163.1z"/>
	<path d="M688.9,178.7l-10.5-12.9v12.9h-5.8v-28.9h5.8v13l10.5-13h7L684,164.1l12.3,14.6H688.9z"/>
	<path d="M720.2,158.5c-0.7-1.2-1.6-2.1-2.7-2.8c-1.2-0.6-2.5-1-4.1-1c-1.7,0-3.2,0.4-4.6,1.2c-1.3,0.8-2.4,1.9-3.1,3.3
		c-0.7,1.4-1.1,3.1-1.1,5c0,1.9,0.4,3.6,1.1,5.1c0.8,1.4,1.8,2.5,3.2,3.3c1.4,0.8,2.9,1.2,4.7,1.2c2.2,0,4-0.6,5.4-1.8
		c1.4-1.2,2.3-2.8,2.8-4.9h-10v-4.4h15.7v5.1c-0.4,2-1.2,3.9-2.5,5.6c-1.3,1.7-2.9,3.1-4.9,4.1c-2,1-4.2,1.6-6.7,1.6
		c-2.8,0-5.3-0.6-7.6-1.9c-2.3-1.3-4-3-5.3-5.2c-1.3-2.2-1.9-4.8-1.9-7.6s0.6-5.4,1.9-7.7c1.3-2.3,3.1-4,5.3-5.3
		c2.3-1.3,4.8-1.9,7.5-1.9c3.3,0,6.1,0.8,8.5,2.4c2.4,1.6,4.1,3.8,5,6.7H720.2z"/>
	<path d="M737.7,154.5v7.3h9.7v4.6h-9.7v7.7h11v4.7h-16.8v-29h16.8v4.7H737.7z"/>
	<path d="M759.7,174.1h9.5v4.6h-15.3v-28.9h5.8V174.1z"/>
	<path d="M778.7,149.8v17.9c0,2,0.5,3.5,1.5,4.5c1,1,2.5,1.6,4.3,1.6c1.9,0,3.3-0.5,4.4-1.6c1-1,1.5-2.5,1.5-4.5v-17.9h5.8v17.9
		c0,2.5-0.5,4.5-1.6,6.2c-1.1,1.7-2.5,3-4.3,3.8s-3.8,1.3-6,1.3c-2.2,0-4.1-0.4-5.9-1.3s-3.1-2.1-4.2-3.8c-1-1.7-1.5-3.8-1.5-6.2
		v-17.9H778.7z"/>
	<path d="M818.2,178.7l-10.5-12.9v12.9h-5.8v-28.9h5.8v13l10.5-13h7l-11.9,14.3l12.3,14.6H818.2z"/>
	<path d="M845,149.8v28.9h-5.8v-28.9H845z"/>
	<path d="M875.5,178.7h-5.8l-13.1-19.9v19.9h-5.8v-29h5.8l13.1,19.9v-19.9h5.8V178.7z"/>
	<path d="M896.9,149.8v28.9h-5.8v-28.9H896.9z"/>
	<path d="M922.3,149.8v4.7h-7.7v24.3h-5.8v-24.3h-7.7v-4.7H922.3z"/>
	<path d="M958.7,178.7l-3.2-3.1c-2.7,2.4-6,3.6-9.8,3.6c-2.1,0-4-0.4-5.6-1.1c-1.6-0.7-2.9-1.8-3.8-3.1c-0.9-1.3-1.3-2.9-1.3-4.7
		c0-1.9,0.5-3.6,1.6-5.1s2.7-2.8,4.8-3.7c-0.7-0.9-1.3-1.8-1.6-2.6c-0.3-0.8-0.5-1.7-0.5-2.7c0-1.3,0.3-2.5,1-3.6
		c0.7-1.1,1.7-1.9,3-2.5c1.3-0.6,2.8-0.9,4.5-0.9c1.7,0,3.2,0.3,4.5,1c1.2,0.7,2.2,1.5,2.8,2.7c0.6,1.1,0.9,2.3,0.8,3.7h-5.6
		c0-0.9-0.2-1.6-0.7-2.1c-0.5-0.5-1.1-0.7-1.9-0.7c-0.8,0-1.4,0.2-1.9,0.7c-0.5,0.5-0.8,1-0.8,1.8c0,0.7,0.2,1.4,0.6,2.1
		c0.4,0.7,1.1,1.5,2,2.5l7.3,7.2c0.1-0.1,0.1-0.1,0.1-0.2c0-0.1,0.1-0.1,0.1-0.2l2.4-3.9h6.1l-2.9,5.1c-0.6,1.1-1.1,2.1-1.8,3.1
		l7,6.9H958.7z M951.9,172l-7.1-7c-2.7,1.2-4,2.9-4,5.1c0,1.2,0.5,2.3,1.4,3.1c0.9,0.8,2.2,1.3,3.7,1.3
		C948.1,174.4,950.2,173.6,951.9,172z"/>
	<path d="M997.4,149.8v4.7h-7.7v24.3h-5.8v-24.3h-7.7v-4.7H997.4z"/>
	<path d="M1007.5,154.5v7.3h9.7v4.6h-9.7v7.7h11v4.7h-16.8v-29h16.8v4.7H1007.5z"/>
	<path d="M1024.2,156.6c1.3-2.3,3-4,5.3-5.3c2.2-1.3,4.7-1.9,7.5-1.9c3.2,0,6.1,0.8,8.5,2.5c2.4,1.7,4.1,4,5.1,6.9h-6.7
		c-0.7-1.4-1.6-2.4-2.8-3.1c-1.2-0.7-2.6-1-4.2-1c-1.7,0-3.2,0.4-4.5,1.2c-1.3,0.8-2.3,1.9-3.1,3.3c-0.7,1.4-1.1,3.1-1.1,5.1
		c0,1.9,0.4,3.6,1.1,5c0.7,1.5,1.8,2.6,3.1,3.4c1.3,0.8,2.8,1.2,4.5,1.2c1.6,0,3-0.4,4.2-1.1c1.2-0.7,2.1-1.7,2.8-3.1h6.7
		c-1,3-2.7,5.3-5.1,6.9c-2.4,1.6-5.3,2.5-8.5,2.5c-2.8,0-5.3-0.6-7.5-1.9c-2.2-1.3-4-3-5.3-5.2c-1.3-2.2-1.9-4.8-1.9-7.6
		S1022.9,158.8,1024.2,156.6z"/>
	<path d="M1079.6,149.8v28.9h-5.8v-12.3h-12.4v12.3h-5.8v-28.9h5.8v11.9h12.4v-11.9H1079.6z"/>
	<path d="M1110,178.7h-5.8l-13.1-19.9v19.9h-5.8v-29h5.8l13.1,19.9v-19.9h5.8V178.7z"/>
	<path d="M1121.6,149.8v28.9h-5.8v-28.9H1121.6z"/>
	<path d="M1133.1,154.5v7.3h9.7v4.6h-9.7v7.7h11v4.7h-16.8v-29h16.8v4.7H1133.1z"/>
	<path d="M1165.7,178.7l-10.5-12.9v12.9h-5.8v-28.9h5.8v13l10.5-13h7l-11.9,14.3l12.3,14.6H1165.7z"/>
</g>
</svg>
